<svg width="175" height="92" viewBox="0 0 175 92" fill="none" xmlns="http://www.w3.org/2000/svg">
<path d="M1.96 35V14.84H9.744C9.94 14.84 10.1593 14.8493 10.402 14.868C10.654 14.8773 10.906 14.9053 11.158 14.952C12.2127 15.1107 13.104 15.4793 13.832 16.058C14.5693 16.6273 15.1247 17.346 15.498 18.214C15.8807 19.082 16.072 20.0433 16.072 21.098C16.072 22.1433 15.8807 23.1 15.498 23.968C15.1153 24.836 14.5553 25.5593 13.818 26.138C13.09 26.7073 12.2033 27.0713 11.158 27.23C10.906 27.2673 10.654 27.2953 10.402 27.314C10.1593 27.3327 9.94 27.342 9.744 27.342H4.018V35H1.96ZM4.018 25.382H9.688C9.856 25.382 10.052 25.3727 10.276 25.354C10.5 25.3353 10.7193 25.3027 10.934 25.256C11.6247 25.1067 12.1893 24.822 12.628 24.402C13.076 23.982 13.4073 23.4827 13.622 22.904C13.846 22.3253 13.958 21.7233 13.958 21.098C13.958 20.4727 13.846 19.8707 13.622 19.292C13.4073 18.704 13.076 18.2 12.628 17.78C12.1893 17.36 11.6247 17.0753 10.934 16.926C10.7193 16.8793 10.5 16.8513 10.276 16.842C10.052 16.8233 9.856 16.814 9.688 16.814H4.018V25.382ZM22.5282 35.42C21.3895 35.42 20.4329 35.2147 19.6582 34.804C18.8929 34.3933 18.3189 33.8473 17.9362 33.166C17.5535 32.4847 17.3622 31.7427 17.3622 30.94C17.3622 30.1187 17.5255 29.4187 17.8522 28.84C18.1882 28.252 18.6409 27.7713 19.2102 27.398C19.7889 27.0247 20.4562 26.74 21.2122 26.544C21.9775 26.3573 22.8222 26.194 23.7462 26.054C24.6795 25.9047 25.5895 25.7787 26.4762 25.676C27.3722 25.564 28.1562 25.4567 28.8282 25.354L28.1002 25.802C28.1282 24.3087 27.8389 23.2027 27.2322 22.484C26.6255 21.7653 25.5709 21.406 24.0682 21.406C23.0322 21.406 22.1549 21.6393 21.4362 22.106C20.7269 22.5727 20.2275 23.31 19.9382 24.318L17.9362 23.73C18.2815 22.3767 18.9769 21.3267 20.0222 20.58C21.0675 19.8333 22.4255 19.46 24.0962 19.46C25.4775 19.46 26.6489 19.7213 27.6102 20.244C28.5809 20.7573 29.2669 21.504 29.6682 22.484C29.8549 22.9227 29.9762 23.4127 30.0322 23.954C30.0882 24.4953 30.1162 25.046 30.1162 25.606V35H28.2822V31.206L28.8142 31.43C28.3009 32.7273 27.5029 33.7167 26.4202 34.398C25.3375 35.0793 24.0402 35.42 22.5282 35.42ZM22.7662 33.642C23.7275 33.642 24.5675 33.4693 25.2862 33.124C26.0049 32.7787 26.5835 32.3073 27.0222 31.71C27.4609 31.1033 27.7455 30.422 27.8762 29.666C27.9882 29.1807 28.0489 28.6487 28.0582 28.07C28.0675 27.482 28.0722 27.0433 28.0722 26.754L28.8562 27.16C28.1562 27.2533 27.3955 27.3467 26.5742 27.44C25.7622 27.5333 24.9595 27.6407 24.1662 27.762C23.3822 27.8833 22.6729 28.028 22.0382 28.196C21.6089 28.3173 21.1935 28.49 20.7922 28.714C20.3909 28.9287 20.0595 29.218 19.7982 29.582C19.5462 29.946 19.4202 30.3987 19.4202 30.94C19.4202 31.3787 19.5275 31.8033 19.7422 32.214C19.9662 32.6247 20.3209 32.9653 20.8062 33.236C21.3009 33.5067 21.9542 33.642 22.7662 33.642ZM51.7928 35L51.8068 25.074C51.8068 23.9073 51.4801 22.9927 50.8268 22.33C50.1828 21.658 49.3614 21.322 48.3628 21.322C47.7934 21.322 47.2381 21.4527 46.6968 21.714C46.1554 21.9753 45.7074 22.3953 45.3528 22.974C45.0074 23.5527 44.8348 24.3087 44.8348 25.242L43.6168 24.892C43.5888 23.8093 43.7988 22.862 44.2468 22.05C44.7041 21.238 45.3294 20.608 46.1228 20.16C46.9254 19.7027 47.8308 19.474 48.8388 19.474C50.3601 19.474 51.5781 19.9453 52.4928 20.888C53.4074 21.8213 53.8648 23.086 53.8648 24.682L53.8508 35H51.7928ZM33.7468 35V19.88H35.5948V23.604H35.8188V35H33.7468ZM42.7908 35L42.8048 25.214C42.8048 24.01 42.4828 23.0627 41.8388 22.372C41.2041 21.672 40.3641 21.322 39.3188 21.322C38.2734 21.322 37.4288 21.6813 36.7848 22.4C36.1408 23.1093 35.8188 24.0567 35.8188 25.242L34.5868 24.57C34.5868 23.5993 34.8154 22.7313 35.2728 21.966C35.7301 21.1913 36.3554 20.5847 37.1488 20.146C37.9421 19.698 38.8428 19.474 39.8508 19.474C40.8121 19.474 41.6661 19.6793 42.4128 20.09C43.1688 20.5007 43.7614 21.098 44.1908 21.882C44.6201 22.666 44.8348 23.618 44.8348 24.738L44.8208 35H42.7908ZM63.1006 35V14.84H70.8846C72.014 14.84 72.9986 15.0733 73.8386 15.54C74.6786 16.0067 75.332 16.6367 75.7986 17.43C76.2653 18.214 76.4986 19.082 76.4986 20.034C76.4986 21.1167 76.2093 22.0827 75.6306 22.932C75.052 23.772 74.2773 24.3553 73.3066 24.682L73.2786 23.996C74.5853 24.3693 75.612 25.0227 76.3586 25.956C77.1053 26.8893 77.4786 28.0187 77.4786 29.344C77.4786 30.5107 77.2313 31.5187 76.7366 32.368C76.242 33.208 75.5466 33.8567 74.6506 34.314C73.7546 34.7713 72.714 35 71.5286 35H63.1006ZM65.1726 33.026H71.0246C71.846 33.026 72.5833 32.8813 73.2366 32.592C73.89 32.2933 74.4033 31.8733 74.7766 31.332C75.1593 30.7907 75.3506 30.1373 75.3506 29.372C75.3506 28.6253 75.178 27.9533 74.8326 27.356C74.4873 26.7587 74.016 26.2827 73.4186 25.928C72.8306 25.564 72.1586 25.382 71.4026 25.382H65.1726V33.026ZM65.1726 23.436H70.8706C71.5146 23.436 72.1026 23.2913 72.6346 23.002C73.1666 22.7033 73.5866 22.2973 73.8946 21.784C74.212 21.2707 74.3706 20.678 74.3706 20.006C74.3706 19.054 74.0393 18.2793 73.3766 17.682C72.7233 17.0847 71.888 16.786 70.8706 16.786H65.1726V23.436ZM86.6705 35.42C85.1958 35.42 83.9172 35.0933 82.8345 34.44C81.7612 33.7867 80.9258 32.8673 80.3285 31.682C79.7312 30.4967 79.4325 29.106 79.4325 27.51C79.4325 25.858 79.7265 24.43 80.3145 23.226C80.9025 22.022 81.7285 21.0933 82.7925 20.44C83.8658 19.7867 85.1305 19.46 86.5865 19.46C88.0798 19.46 89.3538 19.8053 90.4085 20.496C91.4632 21.1773 92.2612 22.1573 92.8025 23.436C93.3438 24.7147 93.5912 26.2407 93.5445 28.014H91.4445V27.286C91.4072 25.326 90.9825 23.8467 90.1705 22.848C89.3678 21.8493 88.1918 21.35 86.6425 21.35C85.0185 21.35 83.7725 21.8773 82.9045 22.932C82.0458 23.9867 81.6165 25.4893 81.6165 27.44C81.6165 29.344 82.0458 30.8233 82.9045 31.878C83.7725 32.9233 84.9998 33.446 86.5865 33.446C87.6692 33.446 88.6118 33.1987 89.4145 32.704C90.2265 32.2 90.8658 31.4767 91.3325 30.534L93.2505 31.276C92.6532 32.592 91.7712 33.614 90.6045 34.342C89.4472 35.0607 88.1358 35.42 86.6705 35.42ZM80.8885 28.014V26.292H92.4385V28.014H80.8885ZM103.049 35.42C101.575 35.42 100.296 35.0933 99.2134 34.44C98.1401 33.7867 97.3047 32.8673 96.7074 31.682C96.1101 30.4967 95.8114 29.106 95.8114 27.51C95.8114 25.858 96.1054 24.43 96.6934 23.226C97.2814 22.022 98.1074 21.0933 99.1714 20.44C100.245 19.7867 101.509 19.46 102.965 19.46C104.459 19.46 105.733 19.8053 106.787 20.496C107.842 21.1773 108.64 22.1573 109.181 23.436C109.723 24.7147 109.97 26.2407 109.923 28.014H107.823V27.286C107.786 25.326 107.361 23.8467 106.549 22.848C105.747 21.8493 104.571 21.35 103.021 21.35C101.397 21.35 100.151 21.8773 99.2834 22.932C98.4247 23.9867 97.9954 25.4893 97.9954 27.44C97.9954 29.344 98.4247 30.8233 99.2834 31.878C100.151 32.9233 101.379 33.446 102.965 33.446C104.048 33.446 104.991 33.1987 105.793 32.704C106.605 32.2 107.245 31.4767 107.711 30.534L109.629 31.276C109.032 32.592 108.15 33.614 106.983 34.342C105.826 35.0607 104.515 35.42 103.049 35.42ZM97.2674 28.014V26.292H108.817V28.014H97.2674ZM121.262 35C120.413 35.1773 119.573 35.2473 118.742 35.21C117.921 35.1727 117.184 34.9953 116.53 34.678C115.886 34.3607 115.396 33.866 115.06 33.194C114.79 32.634 114.64 32.0693 114.612 31.5C114.594 30.9213 114.584 30.2633 114.584 29.526V15.68H116.628V29.442C116.628 30.0767 116.633 30.6087 116.642 31.038C116.661 31.458 116.759 31.8313 116.936 32.158C117.272 32.7833 117.804 33.1567 118.532 33.278C119.27 33.3993 120.18 33.3713 121.262 33.194V35ZM111.35 21.644V19.88H121.262V21.644H111.35ZM129.883 35.406C128.11 35.406 126.649 35.0233 125.501 34.258C124.363 33.4927 123.663 32.4287 123.401 31.066L125.501 30.716C125.725 31.5747 126.234 32.2607 127.027 32.774C127.83 33.278 128.819 33.53 129.995 33.53C131.143 33.53 132.049 33.292 132.711 32.816C133.374 32.3307 133.705 31.6727 133.705 30.842C133.705 30.3753 133.598 29.9973 133.383 29.708C133.178 29.4093 132.753 29.134 132.109 28.882C131.465 28.63 130.504 28.3313 129.225 27.986C127.853 27.6127 126.78 27.2393 126.005 26.866C125.231 26.4927 124.68 26.0633 124.353 25.578C124.027 25.0833 123.863 24.4813 123.863 23.772C123.863 22.9133 124.106 22.162 124.591 21.518C125.077 20.8647 125.749 20.3607 126.607 20.006C127.466 19.642 128.465 19.46 129.603 19.46C130.742 19.46 131.759 19.6467 132.655 20.02C133.561 20.384 134.289 20.8973 134.839 21.56C135.39 22.2227 135.717 22.9927 135.819 23.87L133.719 24.248C133.579 23.3613 133.136 22.6613 132.389 22.148C131.652 21.6253 130.714 21.3547 129.575 21.336C128.502 21.308 127.629 21.5133 126.957 21.952C126.285 22.3813 125.949 22.9553 125.949 23.674C125.949 24.0753 126.071 24.4207 126.313 24.71C126.556 24.99 126.995 25.256 127.629 25.508C128.273 25.76 129.188 26.0353 130.373 26.334C131.764 26.6887 132.856 27.062 133.649 27.454C134.443 27.846 135.007 28.308 135.343 28.84C135.679 29.372 135.847 30.03 135.847 30.814C135.847 32.242 135.315 33.3667 134.251 34.188C133.197 35 131.741 35.406 129.883 35.406ZM139.232 35V14.42H141.29V35H139.232ZM151.885 35.42C150.411 35.42 149.132 35.0933 148.049 34.44C146.976 33.7867 146.141 32.8673 145.543 31.682C144.946 30.4967 144.647 29.106 144.647 27.51C144.647 25.858 144.941 24.43 145.529 23.226C146.117 22.022 146.943 21.0933 148.007 20.44C149.081 19.7867 150.345 19.46 151.801 19.46C153.295 19.46 154.569 19.8053 155.623 20.496C156.678 21.1773 157.476 22.1573 158.017 23.436C158.559 24.7147 158.806 26.2407 158.759 28.014H156.659V27.286C156.622 25.326 156.197 23.8467 155.385 22.848C154.583 21.8493 153.407 21.35 151.857 21.35C150.233 21.35 148.987 21.8773 148.119 22.932C147.261 23.9867 146.831 25.4893 146.831 27.44C146.831 29.344 147.261 30.8233 148.119 31.878C148.987 32.9233 150.215 33.446 151.801 33.446C152.884 33.446 153.827 33.1987 154.629 32.704C155.441 32.2 156.081 31.4767 156.547 30.534L158.465 31.276C157.868 32.592 156.986 33.614 155.819 34.342C154.662 35.0607 153.351 35.42 151.885 35.42ZM146.103 28.014V26.292H157.653V28.014H146.103ZM163.749 41.72L166.675 33.782L166.717 36.134L160.095 19.88H162.279L167.711 33.474H166.815L171.827 19.88H173.927L165.807 41.72H163.749Z" fill="black"/>
<path d="M8.24219 76.5195H13.0957V83.4629C12.3405 83.7038 11.5723 83.8861 10.791 84.0098C10.0098 84.1335 9.10482 84.1953 8.07617 84.1953C5.91471 84.1953 4.23177 83.554 3.02734 82.2715C1.82292 80.9824 1.2207 79.179 1.2207 76.8613C1.2207 75.377 1.51693 74.0781 2.10938 72.9648C2.70833 71.8451 3.56771 70.9922 4.6875 70.4062C5.80729 69.8138 7.11914 69.5176 8.62305 69.5176C10.1465 69.5176 11.5658 69.7975 12.8809 70.3574L12.2363 71.8223C10.9473 71.2754 9.70703 71.002 8.51562 71.002C6.77734 71.002 5.41992 71.5195 4.44336 72.5547C3.4668 73.5898 2.97852 75.0254 2.97852 76.8613C2.97852 78.7884 3.44727 80.25 4.38477 81.2461C5.32878 82.2422 6.71224 82.7402 8.53516 82.7402C9.52474 82.7402 10.4915 82.6263 11.4355 82.3984V78.0039H8.24219V76.5195ZM20.8105 84.1953C19.2285 84.1953 17.9785 83.7135 17.0605 82.75C16.1491 81.7865 15.6934 80.4486 15.6934 78.7363C15.6934 77.0111 16.1165 75.6406 16.9629 74.625C17.8158 73.6094 18.9583 73.1016 20.3906 73.1016C21.7318 73.1016 22.793 73.5443 23.5742 74.4297C24.3555 75.3086 24.7461 76.4707 24.7461 77.916V78.9414H17.373C17.4056 80.1979 17.7214 81.1517 18.3203 81.8027C18.9258 82.4538 19.7754 82.7793 20.8691 82.7793C22.0215 82.7793 23.1608 82.5384 24.2871 82.0566V83.502C23.7142 83.7493 23.1706 83.9251 22.6562 84.0293C22.1484 84.14 21.5332 84.1953 20.8105 84.1953ZM20.3711 74.459C19.5117 74.459 18.8249 74.7389 18.3105 75.2988C17.8027 75.8587 17.5033 76.6335 17.4121 77.623H23.0078C23.0078 76.6009 22.7799 75.8197 22.3242 75.2793C21.8685 74.7324 21.2174 74.459 20.3711 74.459ZM34.8438 84V77.0762C34.8438 76.2038 34.6452 75.5527 34.248 75.123C33.8509 74.6934 33.2292 74.4785 32.3828 74.4785C31.263 74.4785 30.4427 74.7812 29.9219 75.3867C29.401 75.9922 29.1406 76.9915 29.1406 78.3848V84H27.5195V73.2969H28.8379L29.1016 74.7617H29.1797C29.5117 74.2344 29.9772 73.8275 30.5762 73.541C31.1751 73.248 31.8424 73.1016 32.5781 73.1016C33.8672 73.1016 34.8372 73.4141 35.4883 74.0391C36.1393 74.6576 36.4648 75.6504 36.4648 77.0176V84H34.8438ZM44.3262 84.1953C42.7441 84.1953 41.4941 83.7135 40.5762 82.75C39.6647 81.7865 39.209 80.4486 39.209 78.7363C39.209 77.0111 39.6322 75.6406 40.4785 74.625C41.3314 73.6094 42.474 73.1016 43.9062 73.1016C45.2474 73.1016 46.3086 73.5443 47.0898 74.4297C47.8711 75.3086 48.2617 76.4707 48.2617 77.916V78.9414H40.8887C40.9212 80.1979 41.237 81.1517 41.8359 81.8027C42.4414 82.4538 43.291 82.7793 44.3848 82.7793C45.5371 82.7793 46.6764 82.5384 47.8027 82.0566V83.502C47.2298 83.7493 46.6862 83.9251 46.1719 84.0293C45.6641 84.14 45.0488 84.1953 44.3262 84.1953ZM43.8867 74.459C43.0273 74.459 42.3405 74.7389 41.8262 75.2988C41.3184 75.8587 41.0189 76.6335 40.9277 77.623H46.5234C46.5234 76.6009 46.2956 75.8197 45.8398 75.2793C45.3841 74.7324 44.7331 74.459 43.8867 74.459ZM55.918 73.1016C56.3932 73.1016 56.8197 73.1406 57.1973 73.2188L56.9727 74.7227C56.5299 74.625 56.1393 74.5762 55.8008 74.5762C54.9349 74.5762 54.1927 74.9277 53.5742 75.6309C52.9622 76.334 52.6562 77.2096 52.6562 78.2578V84H51.0352V73.2969H52.373L52.5586 75.2793H52.6367C53.0339 74.5827 53.5124 74.0456 54.0723 73.668C54.6322 73.2904 55.2474 73.1016 55.918 73.1016ZM65.7812 84L65.459 82.4766H65.3809C64.847 83.1471 64.3132 83.6029 63.7793 83.8438C63.252 84.0781 62.5911 84.1953 61.7969 84.1953C60.7357 84.1953 59.9023 83.9219 59.2969 83.375C58.6979 82.8281 58.3984 82.0501 58.3984 81.041C58.3984 78.8796 60.127 77.7467 63.584 77.6426L65.4004 77.584V76.9199C65.4004 76.0801 65.2181 75.4616 64.8535 75.0645C64.4954 74.6608 63.9193 74.459 63.125 74.459C62.2331 74.459 61.224 74.7324 60.0977 75.2793L59.5996 74.0391C60.127 73.7526 60.7031 73.528 61.3281 73.3652C61.9596 73.2025 62.5911 73.1211 63.2227 73.1211C64.4987 73.1211 65.4427 73.4043 66.0547 73.9707C66.6732 74.5371 66.9824 75.4453 66.9824 76.6953V84H65.7812ZM62.1191 82.8574C63.1283 82.8574 63.9193 82.5807 64.4922 82.0273C65.0716 81.474 65.3613 80.6992 65.3613 79.7031V78.7363L63.7402 78.8047C62.4512 78.8503 61.5202 79.0521 60.9473 79.4102C60.3809 79.7617 60.0977 80.3118 60.0977 81.0605C60.0977 81.6465 60.2734 82.0924 60.625 82.3984C60.9831 82.7044 61.4811 82.8574 62.1191 82.8574ZM71.9531 84H70.332V68.8047H71.9531V84ZM87.1484 84L82.3047 71.3438H82.2266C82.3177 72.3464 82.3633 73.5378 82.3633 74.918V84H80.8301V69.7227H83.3301L87.8516 81.5H87.9297L92.4902 69.7227H94.9707V84H93.3105V74.8008C93.3105 73.7461 93.3561 72.6003 93.4473 71.3633H93.3691L88.4863 84H87.1484ZM105.234 84L104.912 82.4766H104.834C104.3 83.1471 103.766 83.6029 103.232 83.8438C102.705 84.0781 102.044 84.1953 101.25 84.1953C100.189 84.1953 99.3555 83.9219 98.75 83.375C98.151 82.8281 97.8516 82.0501 97.8516 81.041C97.8516 78.8796 99.5801 77.7467 103.037 77.6426L104.854 77.584V76.9199C104.854 76.0801 104.671 75.4616 104.307 75.0645C103.949 74.6608 103.372 74.459 102.578 74.459C101.686 74.459 100.677 74.7324 99.5508 75.2793L99.0527 74.0391C99.5801 73.7526 100.156 73.528 100.781 73.3652C101.413 73.2025 102.044 73.1211 102.676 73.1211C103.952 73.1211 104.896 73.4043 105.508 73.9707C106.126 74.5371 106.436 75.4453 106.436 76.6953V84H105.234ZM101.572 82.8574C102.581 82.8574 103.372 82.5807 103.945 82.0273C104.525 81.474 104.814 80.6992 104.814 79.7031V78.7363L103.193 78.8047C101.904 78.8503 100.973 79.0521 100.4 79.4102C99.834 79.7617 99.5508 80.3118 99.5508 81.0605C99.5508 81.6465 99.7266 82.0924 100.078 82.3984C100.436 82.7044 100.934 82.8574 101.572 82.8574ZM117.109 84V77.0762C117.109 76.2038 116.911 75.5527 116.514 75.123C116.117 74.6934 115.495 74.4785 114.648 74.4785C113.529 74.4785 112.708 74.7812 112.188 75.3867C111.667 75.9922 111.406 76.9915 111.406 78.3848V84H109.785V73.2969H111.104L111.367 74.7617H111.445C111.777 74.2344 112.243 73.8275 112.842 73.541C113.441 73.248 114.108 73.1016 114.844 73.1016C116.133 73.1016 117.103 73.4141 117.754 74.0391C118.405 74.6576 118.73 75.6504 118.73 77.0176V84H117.109ZM128.652 84L128.33 82.4766H128.252C127.718 83.1471 127.184 83.6029 126.65 83.8438C126.123 84.0781 125.462 84.1953 124.668 84.1953C123.607 84.1953 122.773 83.9219 122.168 83.375C121.569 82.8281 121.27 82.0501 121.27 81.041C121.27 78.8796 122.998 77.7467 126.455 77.6426L128.271 77.584V76.9199C128.271 76.0801 128.089 75.4616 127.725 75.0645C127.367 74.6608 126.79 74.459 125.996 74.459C125.104 74.459 124.095 74.7324 122.969 75.2793L122.471 74.0391C122.998 73.7526 123.574 73.528 124.199 73.3652C124.831 73.2025 125.462 73.1211 126.094 73.1211C127.37 73.1211 128.314 73.4043 128.926 73.9707C129.544 74.5371 129.854 75.4453 129.854 76.6953V84H128.652ZM124.99 82.8574C125.999 82.8574 126.79 82.5807 127.363 82.0273C127.943 81.474 128.232 80.6992 128.232 79.7031V78.7363L126.611 78.8047C125.322 78.8503 124.391 79.0521 123.818 79.4102C123.252 79.7617 122.969 80.3118 122.969 81.0605C122.969 81.6465 123.145 82.0924 123.496 82.3984C123.854 82.7044 124.352 82.8574 124.99 82.8574ZM141.963 73.2969V74.3223L139.98 74.5566C140.163 74.7845 140.326 75.084 140.469 75.4551C140.612 75.8197 140.684 76.2331 140.684 76.6953C140.684 77.7435 140.326 78.5801 139.609 79.2051C138.893 79.8301 137.91 80.1426 136.66 80.1426C136.341 80.1426 136.042 80.1165 135.762 80.0645C135.072 80.429 134.727 80.888 134.727 81.4414C134.727 81.7344 134.847 81.9525 135.088 82.0957C135.329 82.2324 135.742 82.3008 136.328 82.3008H138.223C139.382 82.3008 140.27 82.5449 140.889 83.0332C141.514 83.5215 141.826 84.2311 141.826 85.1621C141.826 86.347 141.351 87.2487 140.4 87.8672C139.45 88.4922 138.063 88.8047 136.24 88.8047C134.84 88.8047 133.76 88.5443 132.998 88.0234C132.243 87.5026 131.865 86.7669 131.865 85.8164C131.865 85.1654 132.074 84.6022 132.49 84.127C132.907 83.6517 133.493 83.3294 134.248 83.1602C133.975 83.0365 133.743 82.8444 133.555 82.584C133.372 82.3236 133.281 82.0208 133.281 81.6758C133.281 81.2852 133.385 80.9434 133.594 80.6504C133.802 80.3574 134.131 80.0742 134.58 79.8008C134.027 79.5729 133.574 79.1855 133.223 78.6387C132.878 78.0918 132.705 77.4668 132.705 76.7637C132.705 75.5918 133.057 74.6901 133.76 74.0586C134.463 73.4206 135.459 73.1016 136.748 73.1016C137.308 73.1016 137.812 73.1667 138.262 73.2969H141.963ZM133.428 85.7969C133.428 86.3763 133.672 86.8158 134.16 87.1152C134.648 87.4147 135.348 87.5645 136.26 87.5645C137.62 87.5645 138.626 87.3594 139.277 86.9492C139.935 86.5456 140.264 85.9954 140.264 85.2988C140.264 84.7194 140.085 84.3158 139.727 84.0879C139.368 83.8665 138.695 83.7559 137.705 83.7559H135.762C135.026 83.7559 134.453 83.9316 134.043 84.2832C133.633 84.6348 133.428 85.1393 133.428 85.7969ZM134.307 76.7246C134.307 77.4733 134.518 78.0397 134.941 78.4238C135.365 78.8079 135.954 79 136.709 79C138.291 79 139.082 78.2318 139.082 76.6953C139.082 75.0872 138.281 74.2832 136.68 74.2832C135.918 74.2832 135.332 74.4883 134.922 74.8984C134.512 75.3086 134.307 75.9173 134.307 76.7246ZM148.682 84.1953C147.1 84.1953 145.85 83.7135 144.932 82.75C144.02 81.7865 143.564 80.4486 143.564 78.7363C143.564 77.0111 143.988 75.6406 144.834 74.625C145.687 73.6094 146.829 73.1016 148.262 73.1016C149.603 73.1016 150.664 73.5443 151.445 74.4297C152.227 75.3086 152.617 76.4707 152.617 77.916V78.9414H145.244C145.277 80.1979 145.592 81.1517 146.191 81.8027C146.797 82.4538 147.646 82.7793 148.74 82.7793C149.893 82.7793 151.032 82.5384 152.158 82.0566V83.502C151.585 83.7493 151.042 83.9251 150.527 84.0293C150.02 84.14 149.404 84.1953 148.682 84.1953ZM148.242 74.459C147.383 74.459 146.696 74.7389 146.182 75.2988C145.674 75.8587 145.374 76.6335 145.283 77.623H150.879C150.879 76.6009 150.651 75.8197 150.195 75.2793C149.74 74.7324 149.089 74.459 148.242 74.459ZM160.273 73.1016C160.749 73.1016 161.175 73.1406 161.553 73.2188L161.328 74.7227C160.885 74.625 160.495 74.5762 160.156 74.5762C159.29 74.5762 158.548 74.9277 157.93 75.6309C157.318 76.334 157.012 77.2096 157.012 78.2578V84H155.391V73.2969H156.729L156.914 75.2793H156.992C157.389 74.5827 157.868 74.0456 158.428 73.668C158.988 73.2904 159.603 73.1016 160.273 73.1016Z" fill="#777777"/>
</svg>
